# Blender v2.79 (sub 0) OBJ File: 'facility.blend'
# www.blender.org
o authorized_personnel_sign
v -0.660474 -0.075767 0.055830
v -0.660474 0.584462 0.055830
v -0.660474 -0.073351 -0.056961
v -0.660474 0.586878 -0.056961
v 0.661153 -0.075767 0.055830
v 0.661153 0.584462 0.055830
v 0.661154 -0.073351 -0.056961
v 0.661154 0.586878 -0.056961
v -0.660474 -0.073351 -0.056961
v -0.660474 -0.073351 -0.056961
v -0.660474 -0.075767 0.055830
v -0.660474 -0.075767 0.055830
v -0.660474 0.584462 0.055830
v -0.660474 0.584462 0.055830
v -0.660474 0.586878 -0.056961
v -0.660474 0.586878 -0.056961
v 0.661154 -0.073351 -0.056961
v 0.661154 -0.073351 -0.056961
v 0.661154 0.586878 -0.056961
v 0.661154 0.586878 -0.056961
v 0.661153 -0.075767 0.055830
v 0.661153 -0.075767 0.055830
v 0.661153 0.584462 0.055830
v 0.661153 0.584462 0.055830
vt 0.623047 0.116211
vt 0.399443 0.004966
vt 0.623179 0.004957
vt 0.623047 0.116211
vt 0.399414 0.004883
vt 0.623047 0.004883
vt 0.399505 0.116208
vt 0.399483 0.116499
vt 0.000000 0.000000
vt 0.000000 0.000000
vt 0.000000 0.000000
vt 0.000000 0.000000
vt 0.000000 0.000000
vt 0.000000 0.000000
vt 0.000000 0.000000
vt 0.000000 0.000000
vt 0.000000 0.000000
vt 0.000000 0.000000
vt 0.000000 0.000000
vt 0.000000 0.000000
vt 0.000000 0.000000
vt 0.000000 0.000000
vt 0.000000 0.000000
vt 0.000000 0.000000
vn 0.0000 0.0000 -1.0000
vn 0.0000 0.0000 1.0000
vn -1.0000 0.0000 -0.0000
vn 1.0000 0.0000 0.0000
vn 0.0000 -0.9998 -0.0214
vn 0.0000 0.9998 0.0214
s off
f 16/1/1 17/2/1 10/3/1
f 24/4/2 12/5/2 22/6/2
f 16/1/1 19/7/1 17/2/1
f 24/4/2 14/8/2 12/5/2
f 13/9/3 9/10/3 11/11/3
f 18/12/4 23/13/4 21/14/4
f 3/15/5 5/16/5 1/17/5
f 4/18/6 6/19/6 8/20/6
f 13/9/3 15/21/3 9/10/3
f 18/12/4 20/22/4 23/13/4
f 3/15/5 7/23/5 5/16/5
f 4/18/6 2/24/6 6/19/6
