# Blender v2.79 (sub 0) OBJ File: 'facility.blend'
# www.blender.org
o door_lock
v -1.737774 2.105351 0.068682
v -1.737774 2.105351 0.001615
v -1.737774 2.105351 0.068682
vt 0.000000 0.000000
vt 0.000000 0.000000
vt 0.000000 0.000000
vn 0.0000 0.0000 1.0000
s off
f 2/1/1 1/2/1 3/3/1
o Cube
v -1.995332 2.192623 0.067603
v -1.995332 2.192623 0.067603
v -1.995332 1.809831 0.067603
v -1.995332 1.809831 0.067603
v -1.995332 1.809831 -0.064544
v -1.995332 1.809831 -0.064544
v -1.623816 1.809831 -0.064544
v -1.623816 1.809831 -0.064544
v -1.623816 1.809831 0.067603
v -1.995332 2.192623 -0.064544
v -1.995332 1.809831 -0.064544
v -1.995332 2.192623 0.067603
v -1.995332 1.809831 0.067603
v -1.623816 2.192623 -0.064544
v -1.623816 1.809831 -0.064544
v -1.623816 2.192623 0.067603
v -1.995332 2.192623 -0.064544
v -1.995332 2.192623 -0.064544
v -1.623816 2.192623 -0.064544
v -1.623816 2.192623 -0.064544
v -1.623816 2.192623 0.067603
v -1.623816 2.192623 0.067603
v -1.623816 1.809831 0.067603
v -1.623816 1.809831 0.067603
vt 0.061331 0.305645
vt 0.045537 0.303865
vt 0.061324 0.303903
vt 0.159231 0.340770
vt 0.096680 0.408203
vt 0.159246 0.408238
vt 0.096669 0.408241
vt 0.159249 0.340921
vt 0.096680 0.340820
vt 0.000000 0.000000
vt 0.000000 0.000000
vt 0.000000 0.000000
vt 0.324606 0.498851
vt 0.313127 0.420964
vt 0.324871 0.420872
vt 0.041273 0.305537
vt 0.071827 0.303880
vt 0.071806 0.305585
vt 0.045506 0.305649
vt 0.096680 0.340820
vt 0.159200 0.408176
vt 0.000000 0.000000
vt 0.312456 0.499015
vt 0.041118 0.303836
vn 0.0000 -1.0000 0.0000
vn 0.0000 0.0000 1.0000
vn 0.0000 0.0000 -1.0000
vn 1.0000 0.0000 0.0000
vn -1.0000 0.0000 0.0000
vn 0.0000 1.0000 0.0000
s off
f 11/4/2 6/5/2 9/6/2
f 24/7/3 7/8/3 27/9/3
f 20/10/4 10/11/4 8/12/4
f 22/13/5 12/14/5 18/15/5
f 4/16/6 14/17/6 16/18/6
f 13/19/7 19/20/7 17/21/7
f 11/4/2 26/22/2 6/5/2
f 24/7/3 5/23/3 7/8/3
f 20/10/4 23/24/4 10/11/4
f 22/13/5 25/25/5 12/14/5
f 4/16/6 21/26/6 14/17/6
f 13/19/7 15/27/7 19/20/7
