# Blender v2.79 (sub 0) OBJ File: ''
# www.blender.org
# centered, size 0.3x0.2x0.03
o sign_exit_left
v 0.300000 -0.150000 -0.013000
v 0.300000 -0.150000 0.013000
v -0.300000 -0.150000 0.013000
v -0.300000 -0.150000 -0.013000
v 0.300000 0.150000 -0.013000
v 0.300000 0.150000 0.013000
v -0.300000 0.150000 0.013000
v -0.300000 0.150000 -0.013000
v 0.300000 -0.150000 -0.013000
v 0.300000 -0.150000 -0.013000
v 0.300000 -0.150000 0.013000
v 0.300000 -0.150000 0.013000
v -0.300000 -0.150000 -0.013000
v -0.300000 -0.150000 -0.013000
v 0.300000 0.150000 -0.013000
v 0.300000 0.150000 -0.013000
v -0.300000 -0.150000 0.013000
v -0.300000 -0.150000 0.013000
v 0.300000 0.150000 0.013000
v 0.300000 0.150000 0.013000
v -0.300000 0.150000 0.013000
v -0.300000 0.150000 0.013000
v -0.300000 0.150000 -0.013000
v -0.300000 0.150000 -0.013000
vt 0.171331 0.001846
vt 0.046140 0.009535
vt 0.046447 0.000923
vt 0.166138 0.001492
vt 0.042661 0.009119
vt 0.042286 0.000498
vt 0.042717 0.000312
vt 0.172241 0.010132
vt 0.042969 0.010376
vt 0.181605 0.084911
vt 0.037109 0.010742
vt 0.181661 0.010889
vt 0.148945 0.001337
vt 0.038755 0.008650
vt 0.039530 0.003488
vt 0.181689 0.010725
vt 0.037109 0.084961
vt 0.181641 0.084961
vt 0.171087 0.010009
vt 0.166293 0.009334
vt 0.172608 0.000488
vt 0.037109 0.084961
vt 0.148450 0.008967
vt 0.037047 0.010750
vn 0.0000 -1.0000 0.0000
vn 0.0000 1.0000 -0.0000
vn 1.0000 0.0000 0.0000
vn -0.0000 -0.0000 1.0000
vn -1.0000 -0.0000 -0.0000
vn 0.0000 0.0000 -1.0000
s off
f 11/1/1 13/2/1 9/3/1
f 24/4/2 20/5/2 16/6/2
f 10/7/3 19/8/3 12/9/3
f 6/10/4 18/11/4 2/12/4
f 7/13/5 14/14/5 3/15/5
f 1/16/6 8/17/6 5/18/6
f 11/1/1 17/19/1 13/2/1
f 24/4/2 22/20/2 20/5/2
f 10/7/3 15/21/3 19/8/3
f 6/10/4 21/22/4 18/11/4
f 7/13/5 23/23/5 14/14/5
f 1/16/6 4/24/6 8/17/6
