# Blender v2.79 (sub 0) OBJ File: 'zombie_body.blend'
# www.blender.org
o ZombieBody
v 0.400000 -0.600000 -0.200000
v 0.400000 -0.600000 0.200000
v -0.400000 -0.600000 0.200000
v -0.400000 -0.600000 -0.200000
v 0.400000 0.600000 -0.199999
v 0.399999 0.600000 0.200001
v -0.400000 0.600000 0.200000
v -0.400000 0.600000 -0.200000
v 0.400000 -0.600000 -0.200000
v 0.400000 -0.600000 0.200000
v -0.400000 -0.600000 -0.200000
v -0.400000 -0.600000 0.200000
v 0.400000 -0.600000 -0.200000
v 0.400000 0.600000 -0.199999
v 0.400000 0.600000 -0.199999
v 0.400000 -0.600000 0.200000
v 0.399999 0.600000 0.200001
v 0.399999 0.600000 0.200001
v -0.400000 -0.600000 0.200000
v -0.400000 0.600000 0.200000
v -0.400000 0.600000 0.200000
v -0.400000 -0.600000 -0.200000
v -0.400000 0.600000 -0.200000
v -0.400000 0.600000 -0.200000
vt 0.324324 0.269531
vt 0.108208 0.374888
vt 0.324282 0.374977
vt 0.108193 0.625136
vt 0.324291 0.750077
vt 0.324324 0.625000
vt 0.891892 0.750000
vt 0.783786 0.375139
vt 0.891867 0.375200
vt 0.324324 0.750000
vt 0.108924 0.375749
vt 0.324749 0.375152
vt 0.783926 0.750039
vt 0.675685 0.375000
vt 0.783784 0.375000
vt 0.675676 0.375000
vt 0.891913 0.750143
vt 0.675504 0.749978
vt 0.108237 0.268557
vt 0.108134 0.750098
vt 0.783839 0.750077
vt 0.108108 0.750000
vt 0.675684 0.750000
vt 0.891910 0.374842
vn 0.0000 -1.0000 0.0000
vn 0.0000 1.0000 -0.0000
vn 1.0000 -0.0000 0.0000
vn -0.0000 -0.0000 1.0000
vn -1.0000 -0.0000 -0.0000
vn 0.0000 0.0000 -1.0000
s off
f 10/1/1 11/2/1 9/3/1
f 24/4/2 18/5/2 15/6/2
f 14/7/3 16/8/3 13/9/3
f 6/10/4 19/11/4 2/12/4
f 7/13/5 22/14/5 3/15/5
f 1/16/6 8/17/6 5/18/6
f 10/1/1 12/19/1 11/2/1
f 24/4/2 21/20/2 18/5/2
f 14/7/3 17/21/3 16/8/3
f 6/10/4 20/22/4 19/11/4
f 7/13/5 23/23/5 22/14/5
f 1/16/6 4/24/6 8/17/6
