# Blender v2.79 (sub 0) OBJ File: 'zombie_head.blend'
# www.blender.org
o ZombieHead
v 0.395604 -0.395604 -0.395604
v 0.395604 -0.395604 0.395604
v -0.395604 -0.395604 0.395604
v -0.395604 -0.395604 -0.395604
v 0.395604 0.395604 -0.395604
v 0.395604 0.395604 0.395604
v -0.395604 0.395604 0.395604
v -0.395604 0.395604 -0.395604
v 0.395604 0.395604 -0.395604
v 0.395604 0.395604 0.395604
v -0.395604 0.395604 -0.395604
v -0.395604 0.395604 0.395604
v 0.395604 -0.395604 -0.395604
v 0.395604 -0.395604 -0.395604
v 0.395604 -0.395604 0.395604
v 0.395604 -0.395604 0.395604
v -0.395604 -0.395604 -0.395604
v -0.395604 -0.395604 -0.395604
v 0.395604 0.395604 -0.395604
v -0.395604 -0.395604 0.395604
v -0.395604 -0.395604 0.395604
v 0.395604 0.395604 0.395604
v -0.395604 0.395604 0.395604
v -0.395604 0.395604 -0.395604
vt 0.891892 0.750000
vt 0.675676 1.000000
vt 0.675676 0.750000
vt 0.891839 0.750030
vt 0.675666 0.999982
vt 0.675685 0.749992
vt 0.891892 0.750000
vt 0.675672 1.000001
vt 0.675676 0.750000
vt 0.324379 0.999937
vt 0.108111 0.750268
vt 0.324269 0.749937
vt 0.891892 0.750000
vt 0.675676 1.000000
vt 0.675676 0.750000
vt 0.891839 0.749969
vt 0.675656 1.000003
vt 0.675685 0.749992
vt 0.891890 0.999988
vt 0.891890 1.000012
vt 0.891892 1.000000
vt 0.108163 1.000063
vt 0.891905 1.000006
vt 0.891892 1.000000
vn 0.0000 -1.0000 0.0000
vn 0.0000 1.0000 -0.0000
vn 1.0000 -0.0000 0.0000
vn -0.0000 -0.0000 1.0000
vn -1.0000 -0.0000 -0.0000
vn 0.0000 0.0000 -1.0000
f 15/1/1 17/2/1 13/3/1
f 8/4/2 6/5/2 5/6/2
f 19/7/3 16/8/3 14/9/3
f 10/10/4 21/11/4 2/12/4
f 12/13/5 18/14/5 3/15/5
f 1/16/6 11/17/6 9/18/6
f 15/1/1 20/19/1 17/2/1
f 8/4/2 7/20/2 6/5/2
f 19/7/3 22/21/3 16/8/3
f 10/10/4 23/22/4 21/11/4
f 12/13/5 24/23/5 18/14/5
f 1/16/6 4/24/6 11/17/6
