# Blender v2.79 (sub 0) OBJ File: 'zombie_leg.blend'
# www.blender.org
o ZombieLeg
v 0.178427 -1.200000 -0.200000
v 0.178427 -1.200000 0.200000
v -0.200000 -1.200000 0.200000
v -0.200000 -1.200000 -0.200000
v 0.178427 0.000000 -0.199999
v 0.178426 0.000000 0.200001
v -0.200000 0.000000 0.200000
v -0.200000 0.000000 -0.200000
v 0.178427 -1.200000 -0.200000
v 0.178427 -1.200000 -0.200000
v 0.178427 -1.200000 0.200000
v 0.178427 -1.200000 0.200000
v -0.200000 -1.200000 -0.200000
v -0.200000 -1.200000 -0.200000
v 0.178427 0.000000 -0.199999
v 0.178427 0.000000 -0.199999
v -0.200000 -1.200000 0.200000
v -0.200000 -1.200000 0.200000
v 0.178426 0.000000 0.200001
v 0.178426 0.000000 0.200001
v -0.200000 0.000000 0.200000
v -0.200000 0.000000 0.200000
v -0.200000 0.000000 -0.200000
v -0.200000 0.000000 -0.200000
vt 0.122005 0.003875
vt 0.167419 0.060581
vt 0.123345 0.060194
vt 0.238895 0.126730
vt 0.190478 0.065211
vt 0.238363 0.064596
vt 0.241032 0.373811
vt 0.190453 0.000032
vt 0.241617 0.000034
vt 0.108099 0.374936
vt 0.216119 0.000064
vt 0.108117 -0.000064
vt 0.242497 0.375492
vt 0.188035 0.000000
vt 0.242669 0.000775
vt 0.784044 0.031196
vt 0.675686 0.406171
vt 0.783765 0.406283
vt 0.166749 0.002713
vt 0.191542 0.125500
vt 0.190752 0.373492
vt 0.216207 0.375003
vt 0.190130 0.375147
vt 0.675693 0.031160
vn 0.0000 -1.0000 0.0000
vn 0.0000 1.0000 0.0000
vn 1.0000 -0.0000 0.0000
vn -0.0000 -0.0000 1.0000
vn -1.0000 -0.0000 -0.0000
vn 0.0000 0.0000 -1.0000
s off
f 9/1/1 17/2/1 13/3/1
f 24/4/2 20/5/2 16/6/2
f 15/7/3 12/8/3 10/9/3
f 6/10/4 18/11/4 2/12/4
f 7/13/5 14/14/5 3/15/5
f 1/16/6 8/17/6 5/18/6
f 9/1/1 11/19/1 17/2/1
f 24/4/2 22/20/2 20/5/2
f 15/7/3 19/21/3 12/8/3
f 6/10/4 21/22/4 18/11/4
f 7/13/5 23/23/5 14/14/5
f 1/16/6 4/24/6 8/17/6
